<?xml version="1.0" standalone="no"?>
<!DOCTYPE svg PUBLIC "-//W3C//DTD SVG 20010904//EN"
 "http://www.w3.org/TR/2001/REC-SVG-20010904/DTD/svg10.dtd">
<svg version="1.0" xmlns="http://www.w3.org/2000/svg"
 width="1756.000000pt" height="1756.000000pt" viewBox="0 0 1756.000000 1756.000000"
 preserveAspectRatio="xMidYMid meet">
<metadata>
Created by potrace 1.11, written by Peter Selinger 2001-2013
</metadata>
<g transform="translate(0.000000,1756.000000) scale(0.100000,-0.100000)"
fill="#000000" stroke="none">
<path d="M8420 14384 c-646 -117 -1192 -218 -1214 -224 -23 -7 -58 -31 -85
-58 l-46 -47 -160 -515 c-144 -465 -163 -519 -194 -553 -19 -21 -47 -45 -62
-53 -15 -7 -155 -37 -311 -65 -283 -51 -318 -61 -350 -96 -51 -56 -48 138 -48
-3042 l0 -2949 -61 25 c-82 33 -228 69 -336 84 -144 19 -442 6 -591 -25 -624
-132 -1130 -546 -1264 -1032 -29 -105 -32 -327 -5 -424 43 -162 178 -367 303
-462 497 -374 1307 -349 1924 59 135 90 339 286 412 398 65 99 123 219 155
321 l28 89 3 2481 2 2482 98 17 c53 9 114 21 135 26 42 11 111 68 131 108 8
14 82 247 166 516 88 287 161 506 176 527 55 85 -20 68 1322 308 993 178 1226
217 1253 210 74 -21 78 -29 269 -495 99 -242 189 -451 199 -465 10 -14 39 -34
65 -44 l47 -20 667 119 c367 65 722 128 790 140 l122 22 0 -1949 0 -1949 -21
12 c-40 21 -159 58 -252 78 -668 145 -1470 -159 -1827 -691 -212 -316 -247
-641 -101 -933 140 -279 425 -468 811 -537 146 -26 406 -28 557 -5 699 109
1263 558 1380 1098 17 80 18 244 18 3546 l0 3462 -21 28 c-49 66 38 76 -1140
-135 -588 -106 -1085 -192 -1104 -192 -40 0 -92 29 -114 62 -8 13 -94 216
-191 453 -96 236 -186 440 -198 454 -29 32 -78 51 -124 50 -21 -1 -567 -97
-1213 -215z"/>
</g>
</svg>
